<?xml version="1.0" encoding="UTF-8" standalone="no"?>
<!-- Created with Inkscape (http://www.inkscape.org/) -->

<svg
   width="454.39789mm"
   height="387.26376mm"
   viewBox="0 0 454.39789 387.26376"
   version="1.1"
   id="svg1"
   xml:space="preserve"
   xmlns:inkscape="http://www.inkscape.org/namespaces/inkscape"
   xmlns:sodipodi="http://sodipodi.sourceforge.net/DTD/sodipodi-0.dtd"
   xmlns:xlink="http://www.w3.org/1999/xlink"
   xmlns="http://www.w3.org/2000/svg"
   xmlns:svg="http://www.w3.org/2000/svg"><sodipodi:namedview
     id="namedview1"
     pagecolor="#ffffff"
     bordercolor="#000000"
     borderopacity="0.25"
     inkscape:showpageshadow="2"
     inkscape:pageopacity="0.0"
     inkscape:pagecheckerboard="0"
     inkscape:deskcolor="#d1d1d1"
     inkscape:document-units="mm" /><defs
     id="defs1"><linearGradient
       id="linearGradient1"
       inkscape:collect="always"><stop
         style="stop-color:#2037f9;stop-opacity:0.7897709;"
         offset="0.00777646"
         id="stop1" /><stop
         style="stop-color:#00d4ff;stop-opacity:0.75010121;"
         offset="0.82727456"
         id="stop2" /></linearGradient><radialGradient
       inkscape:collect="always"
       xlink:href="#linearGradient1"
       id="radialGradient2"
       cx="-271.47214"
       cy="241.68164"
       fx="-271.47214"
       fy="241.68164"
       r="227.19894"
       gradientTransform="matrix(1,0,0,0.8522569,-16.899629,2.5198829)"
       gradientUnits="userSpaceOnUse" /></defs><g
     inkscape:label="Layer 1"
     inkscape:groupmode="layer"
     id="layer1"
     transform="translate(515.57075,-14.862865)"><path
       d="m -293.63979,16.538662 c -1.44639,0.176389 -4.58611,0.776111 -6.91444,1.27 l -4.30389,0.9525 -3.98639,-0.599722 c -5.25639,-0.740834 -18.02695,-0.776111 -23.24806,-0.03528 -6.73805,0.9525 -12.77055,2.398889 -17.39194,4.092222 l -2.89278,1.058333 -6.70278,-0.388055 c -9.27805,-0.564445 -17.07444,0.03528 -25.89389,1.975555 -12.84111,2.8575 -26.52888,9.630834 -35.98333,17.78 l -2.75166,2.398889 -3.66889,-0.03528 c -5.29167,-0.07055 -9.06639,1.023058 -14.95778,4.268614 -6.91445,3.81 -12.73528,8.74889 -23.8125,20.178891 -9.94834,10.26583 -15.66334,15.62805 -19.61445,18.415 -3.56305,2.46944 -8.29028,7.44361 -11.07722,11.64167 -2.57528,3.845271 -6.06778,10.936111 -7.9375,16.157221 -0.74083,2.01083 -1.94028,4.65666 -2.68111,5.89138 -2.89278,4.69195 -4.86833,9.45445 -5.82083,13.97 -0.98778,4.69195 -0.42334,8.74889 1.69333,12.62945 l 1.12889,2.04611 -1.48167,3.10444 c -0.81139,1.76389 -1.62278,4.16278 -1.86972,5.53861 -0.56445,3.28084 -0.21167,9.24278 0.70555,12.45306 2.08139,7.19667 7.16139,16.01611 12.80584,22.15444 1.83444,2.01084 1.97555,2.29306 2.82222,5.85611 1.94028,7.97278 5.04472,13.68778 10.68917,19.64973 7.37305,7.72583 15.94555,13.08805 28.29278,17.56833 4.83305,1.72861 12.91166,3.88056 18.55611,4.93889 l 3.4925,0.635 1.19944,2.54 c 0.81139,1.72861 2.08139,3.45722 4.02167,5.57389 2.50472,2.68111 2.82222,3.175 2.82222,4.37444 0,0.74084 0.24695,2.18722 0.56445,3.24556 0.3175,1.09361 0.59972,3.52778 0.635,5.64444 0.0706,3.38667 0.14111,3.88056 1.19944,5.89139 2.39889,4.69195 6.24417,8.29028 13.68778,12.91167 2.36361,1.44639 5.92666,3.88055 7.9375,5.43278 11.67694,8.96055 23.31861,14.53444 36.195,17.35666 6.06777,1.30528 7.05555,1.41111 19.79083,1.76389 14.11111,0.42333 20.35528,-0.10583 35.31306,-2.99861 3.56305,-0.67028 6.52638,-1.19944 6.56166,-1.12889 0.0706,0.0706 0.91722,1.72861 1.905,3.70417 4.58611,9.17222 10.26584,16.36889 17.25084,21.80166 2.71638,2.11667 3.4925,2.96334 5.25638,5.82084 2.8575,4.55083 12.24139,20.84916 14.64028,25.4 5.82084,11.1125 9.525,18.48555 10.51278,20.99028 3.56306,9.06638 8.5725,15.20472 15.06361,18.415 3.88056,1.94027 6.38528,2.25777 11.04195,1.37583 3.10444,-0.59972 4.19805,-1.16417 5.43277,-2.82222 0.635,-0.81139 0.74084,-1.44639 0.70556,-4.19806 -0.0706,-3.81 -0.81139,-6.49111 -4.79778,-17.53305 -2.57528,-7.12612 -4.05694,-11.85334 -3.77472,-12.13556 0.0706,-0.10583 3.24555,0.52917 7.02028,1.34056 6.59694,1.44638 7.23194,1.51694 14.81666,1.76388 4.37445,0.10584 10.23056,0.49389 13.05278,0.81139 6.49111,0.74084 11.39472,0.35278 21.09611,-1.65805 17.35667,-3.56306 27.02278,-7.26722 35.70111,-13.75834 2.64584,-1.97555 7.44361,-6.70277 9.41917,-9.31333 2.11667,-2.78694 4.23333,-7.26722 4.72722,-9.91305 0.3175,-1.69334 0.67028,-2.39889 1.97556,-3.88056 1.97555,-2.15194 3.06916,-4.445 3.77472,-8.00806 0.70556,-3.38666 0.70556,-4.55083 0.0353,-7.58472 -0.3175,-1.30528 -0.59972,-2.71639 -0.70556,-3.13972 -0.17639,-0.74083 -0.0353,-0.74083 6.27944,-0.9525 14.88722,-0.49389 25.188331,-4.65667 34.290001,-13.79361 11.99444,-12.10028 18.415,-30.97389 19.12055,-56.12695 0.21167,-8.07861 -0.56444,-25.61166 -1.51694,-34.18416 -1.79917,-16.29834 -6.10306,-29.80972 -11.71222,-36.72417 -1.44639,-1.76389 -1.97556,-2.82222 -3.10445,-6.35 -3.63361,-11.28889 -11.04194,-22.36611 -17.32139,-25.92917 l -2.18722,-1.23472 -0.21167,-2.29305 c -0.49389,-5.04473 -0.9525,-7.86695 -1.728611,-10.4775 -2.57528,-8.53722 -6.6675,-15.13417 -13.75833,-22.154441 -4.19805,-4.16278 -7.51416,-6.80861 -12.59416,-10.01889 -3.10444,-1.94028 -3.21028,-2.04611 -3.91583,-4.09222 -0.9878,-2.96334 -4.02169,-7.44362 -7.47891,-11.04195 -1.62278,-1.69333 -3.95111,-4.51555 -5.18583,-6.24417 -11.25361,-15.945553 -31.57361,-27.904719 -58.7375,-34.572219 -3.70417,-0.917222 -7.9375,-2.2225 -10.12473,-3.175 -5.36222,-2.2225 -10.795,-3.880556 -16.79222,-5.115278 -6.56166,-1.305278 -11.07722,-1.763889 -18.02694,-1.763889 h -5.53861 l -3.31611,-1.552222 c -4.30389,-2.046111 -9.87778,-3.915833 -15.06362,-5.009444 -3.56305,-0.776112 -5.22111,-0.917223 -12.065,-1.023056 -4.37444,-0.07056 -9.13694,0 -10.58333,0.176389 z"
       id="path1"
       style="fill:url(#radialGradient2);stroke:#00ffff;stroke-width:2.935;stroke-dasharray:none"
       inkscape:transform-center-x="-0.62348001"
       inkscape:transform-center-y="49.011295"
       inkscape:export-filename="brain.svg"
       inkscape:export-xdpi="96"
       inkscape:export-ydpi="96" /></g></svg>
