<?xml version="1.0" encoding="UTF-8" standalone="no"?>
<!-- Created with Inkscape (http://www.inkscape.org/) -->

<svg
   width="281.78421mm"
   height="437.27609mm"
   viewBox="0 0 281.78421 437.27609"
   version="1.1"
   id="svg1"
   xmlns:xlink="http://www.w3.org/1999/xlink"
   xmlns="http://www.w3.org/2000/svg"
   xmlns:svg="http://www.w3.org/2000/svg">
  <defs
     id="defs1">
    <clipPath
       clipPathUnits="userSpaceOnUse"
       id="clipPath62">
      <g
         id="g63"
         transform="translate(1953.0006,270.50583)">
        <rect
           style="opacity:0.935963;fill:#00ff00;fill-opacity:1;stroke:none;stroke-width:0.121"
           id="rect62"
           width="500"
           height="500"
           x="-3666.0134"
           y="182.88098" />
      </g>
    </clipPath>
    <filter
       style="color-interpolation-filters:sRGB"
       id="filter24"
       x="-0.024549012"
       y="-0.028338992"
       width="1.049098"
       height="1.0566735">
      <feGaussianBlur
         stdDeviation="2.3382404"
         id="feGaussianBlur24" />
    </filter>
    <linearGradient
       xlink:href="#linearGradient87"
       id="linearGradient206"
       gradientUnits="userSpaceOnUse"
       gradientTransform="matrix(2.6537466,0,0,2.6537466,-1689.9098,-93.853293)"
       x1="110.43024"
       y1="115.08163"
       x2="129.26141"
       y2="116.13934" />
    <linearGradient
       id="linearGradient87">
      <stop
         style="stop-color:#f9f9f9;stop-opacity:1"
         offset="0"
         id="stop86" />
      <stop
         style="stop-color:#2df9b7;stop-opacity:1"
         offset="1"
         id="stop87" />
    </linearGradient>
    <linearGradient
       xlink:href="#linearGradient141"
       id="linearGradient207"
       gradientUnits="userSpaceOnUse"
       gradientTransform="matrix(2.6537466,0,0,2.6537466,1515.4366,419.90579)"
       x1="-1102.5427"
       y1="-78.676552"
       x2="-1056.1523"
       y2="-78.676552" />
    <linearGradient
       id="linearGradient141">
      <stop
         style="stop-color:#ffffff;stop-opacity:1;"
         offset="0"
         id="stop141" />
      <stop
         style="stop-color:#2df9b7;stop-opacity:1;"
         offset="1"
         id="stop142" />
    </linearGradient>
    <linearGradient
       xlink:href="#linearGradient145"
       id="linearGradient208"
       gradientUnits="userSpaceOnUse"
       gradientTransform="matrix(2.6537466,0,0,2.6537466,-1669.7392,-437.0003)"
       x1="57.437077"
       y1="244.79984"
       x2="93.830498"
       y2="244.86974" />
    <linearGradient
       id="linearGradient145">
      <stop
         style="stop-color:#007fd7;stop-opacity:1"
         offset="0"
         id="stop144" />
      <stop
         style="stop-color:#f9f9f9;stop-opacity:1"
         offset="1"
         id="stop145" />
    </linearGradient>
    <linearGradient
       xlink:href="#linearGradient147"
       id="linearGradient209"
       gradientUnits="userSpaceOnUse"
       gradientTransform="matrix(2.6537466,0,0,2.6537466,1515.4366,419.90579)"
       x1="-1150.2953"
       y1="-78.676491"
       x2="-1103.9034"
       y2="-78.676491" />
    <linearGradient
       id="linearGradient147">
      <stop
         style="stop-color:#007fd7;stop-opacity:1;"
         offset="0"
         id="stop147" />
      <stop
         style="stop-color:#ffffff;stop-opacity:1;"
         offset="1"
         id="stop148" />
    </linearGradient>
    <linearGradient
       xlink:href="#linearGradient94"
       id="linearGradient210"
       gradientUnits="userSpaceOnUse"
       x1="276.03522"
       y1="310.91431"
       x2="305.98013"
       y2="311.18719" />
    <linearGradient
       id="linearGradient94">
      <stop
         style="stop-color:#1cc07e;stop-opacity:0;"
         offset="0"
         id="stop98" />
      <stop
         style="stop-color:#cfeee1;stop-opacity:0.89803922;"
         offset="0.3474524"
         id="stop103" />
      <stop
         style="stop-color:#f2f2f2;stop-opacity:1;"
         offset="0.49498093"
         id="stop100" />
      <stop
         style="stop-color:#c9f1f1;stop-opacity:1;"
         offset="0.7016663"
         id="stop104" />
      <stop
         style="stop-color:#00adcb;stop-opacity:0;"
         offset="1"
         id="stop99" />
    </linearGradient>
    <filter
       style="color-interpolation-filters:sRGB"
       id="filter104"
       x="-0.71821529"
       y="-0.77125947"
       width="2.4364306"
       height="2.5425189">
      <feGaussianBlur
         stdDeviation="5.6958404"
         id="feGaussianBlur104" />
    </filter>
    <filter
       style="color-interpolation-filters:sRGB"
       id="filter2"
       x="-0.37005114"
       y="-0.39738147"
       width="1.7401023"
       height="1.7947629">
      <feGaussianBlur
         stdDeviation="2.934708"
         id="feGaussianBlur2" />
    </filter>
    <filter
       style="color-interpolation-filters:sRGB"
       id="filter94"
       x="-0.15897993"
       y="-0.17072155"
       width="1.3179599"
       height="1.3414431">
      <feGaussianBlur
         stdDeviation="1.2607979"
         id="feGaussianBlur94" />
    </filter>
    <filter
       style="color-interpolation-filters:sRGB"
       id="filter148"
       x="-0.34862067"
       y="-0.34862067"
       width="1.6972413"
       height="1.6972413">
      <feGaussianBlur
         stdDeviation="1.2613507"
         id="feGaussianBlur148" />
    </filter>
    <linearGradient
       xlink:href="#linearGradient87"
       id="linearGradient1"
       gradientUnits="userSpaceOnUse"
       gradientTransform="matrix(2.6537466,0,0,2.6537466,-1689.9098,-93.853293)"
       x1="110.43024"
       y1="115.08163"
       x2="129.26141"
       y2="116.13934" />
    <linearGradient
       xlink:href="#linearGradient141"
       id="linearGradient2"
       gradientUnits="userSpaceOnUse"
       gradientTransform="matrix(2.6537466,0,0,2.6537466,1515.4366,419.90579)"
       x1="-1102.5427"
       y1="-78.676552"
       x2="-1056.1523"
       y2="-78.676552" />
    <linearGradient
       xlink:href="#linearGradient145"
       id="linearGradient3"
       gradientUnits="userSpaceOnUse"
       gradientTransform="matrix(2.6537466,0,0,2.6537466,-1669.7392,-437.0003)"
       x1="57.437077"
       y1="244.79984"
       x2="93.830498"
       y2="244.86974" />
    <linearGradient
       xlink:href="#linearGradient147"
       id="linearGradient4"
       gradientUnits="userSpaceOnUse"
       gradientTransform="matrix(2.6537466,0,0,2.6537466,1515.4366,419.90579)"
       x1="-1150.2953"
       y1="-78.676491"
       x2="-1103.9034"
       y2="-78.676491" />
  </defs>
  <g
     id="layer1"
     transform="translate(7.6728725,45.243799)">
    <g
       id="g193"
       transform="translate(1597.8278,-498.63061)"
       clip-path="url(#clipPath62)">
      <g
         id="g185"
         transform="matrix(1.079404,0,0,1.079404,59.769184,451.09935)"
         style="opacity:0.935963;mix-blend-mode:normal;filter:url(#filter24)">
        <path
           id="path184"
           style="font-variation-settings:'wght' 460;fill:url(#linearGradient1);fill-opacity:1;stroke:url(#linearGradient2);stroke-width:1;stroke-dasharray:none;stroke-opacity:1"
           d="m -1382.1421,103.30068 c -2.8634,-0.0846 -4.7558,0.26325 -4.7558,0.26325 v 0.005 c -10.1325,1.83236 -16.1687,8.20085 -19.2869,13.85351 -3.1178,5.65267 -3.6945,10.94209 -3.6945,10.94209 l -0.026,0.21257 -0.027,166.72465 0.066,0.35244 c 0,0 3.3997,18.17835 20.4948,22.46291 13.3993,3.35829 22.6262,-4.30276 26.0025,-7.74273 12.9447,2.76812 22.2305,-1.82748 27.2901,-7.68647 4.0554,-4.69618 5.5139,-8.95857 6.1835,-11.26847 11.2418,-3.01593 17.0498,-10.63301 19.0881,-17.52874 1.5036,-5.08625 1.3938,-8.93273 1.182,-11.39877 11.2137,-6.18698 15.6688,-15.26924 16.363,-22.7838 0.5586,-6.04953 -0.6345,-10.19479 -1.3837,-12.393 7.546,-9.61128 7.8737,-19.53046 5.5623,-26.58932 -1.8515,-5.65399 -4.4766,-8.97996 -5.9558,-10.68841 2.9714,-11.50874 -0.077,-20.50285 -4.3898,-26.06545 -3.2671,-4.21231 -6.3993,-6.24556 -8.3556,-7.3656 -0.4995,-11.72744 -6.0307,-19.27151 -11.7965,-23.13624 -4.0618,-2.72259 -7.4501,-3.69171 -9.7915,-4.19361 -2.365,-10.78881 -8.9675,-17.76771 -16.492,-20.65408 -7.1805,-2.75443 -14.7322,-2.2736 -20.5827,0.58969 -4.1751,-3.32329 -8.7213,-5.14119 -12.5275,-5.65413 h -0.027 c -1.136,-0.15312 -2.1983,-0.22955 -3.1529,-0.25768 z m -0.053,7.67825 c 3.3767,0.12658 8.6316,1.08044 12.6454,5.26739 l 2.2339,2.3272 2.6795,-1.79786 c 3.3395,-2.24565 10.1458,-3.23369 16.0053,-0.986 5.8597,2.24773 10.9886,7.12192 12.3614,17.25586 l 0.4044,2.98955 3.0062,0.31131 c 0,0 4.4933,0.48935 8.9824,3.49833 4.4891,3.00898 8.8747,8.03931 8.6356,18.97553 l -0.056,2.51921 2.2916,1.05183 c 0,0 4.1003,1.90598 7.4944,6.28219 3.3941,4.37622 6.0911,10.74638 2.7153,21.2191 l -0.7144,2.22434 1.6483,1.65798 c 0,0 3.6218,3.70328 5.4675,9.34034 1.8459,5.63709 2.2005,12.6437 -5.307,21.00653 l -1.6334,1.81978 0.9599,2.24905 c 0,0 2.0097,4.81931 1.4564,10.81179 -0.5536,5.9925 -3.1991,12.84676 -14.3265,18.00187 l -2.6742,1.23835 0.5074,2.90728 c 0,0 0.8428,5.10077 -0.772,10.56358 -1.6148,5.46285 -5.0225,10.97532 -15.4867,12.94705 l -2.4988,0.47173 -0.539,2.48354 c 0,0 -1.2557,5.48919 -5.1987,10.05483 -3.9426,4.56566 -9.8475,8.36551 -21.8679,4.95473 l -0.5127,-0.14543 h -2.4465 v 0.0106 l -1.1425,1.50849 c 0,0 -7.1494,9.80058 -19.639,6.6703 -12.1781,-3.05218 -14.6898,-15.93874 -14.7506,-16.25475 v -23.8082 h 19.2428 c 1.7836,5.38501 6.8868,9.31428 12.8389,9.31428 7.4156,0 13.512,-6.09637 13.512,-13.51203 0,-7.41565 -6.0964,-13.51202 -13.512,-13.51202 -6.1283,0 -11.3565,4.16487 -12.9883,9.79564 h -19.0921 v -45.91457 h 55.1027 c 1.7045,5.51393 6.871,9.56525 12.9155,9.56525 7.4156,0 13.5121,-6.0964 13.5121,-13.51203 0,-7.41563 -6.0965,-13.5175 -13.5121,-13.5175 -6.0376,0 -11.1996,4.04474 -12.91,9.55017 h -55.1069 V 165.0458 h 34.055 c 1.7831,5.38565 6.8862,9.31566 12.8386,9.31566 7.4156,0 13.5121,-6.09775 13.5121,-13.51338 0,-7.41566 -6.0965,-13.51752 -13.5121,-13.51752 -6.128,0 -11.3549,4.16924 -12.9866,9.80111 h -33.9056 V 129.1422 c 0,-0.0679 0.4312,-3.78957 2.7617,-8.01426 2.3491,-4.25879 6.2369,-8.60735 13.9125,-10.00269 0,-0.002 1.3489,-0.22238 3.3682,-0.14675 z m 26.8456,44.42801 c 3.0513,0 5.4375,2.39015 5.4375,5.44156 0,3.05141 -2.3862,5.43745 -5.4375,5.43745 -3.0513,0 -5.4415,-2.38604 -5.4415,-5.43745 0,-3.05141 2.3902,-5.44156 5.4415,-5.44156 z m 21.1164,51.98146 c 3.0515,0 5.4375,2.39153 5.4375,5.44291 0,3.05144 -2.386,5.43748 -5.4375,5.43748 -3.0513,0 -5.4375,-2.38604 -5.4375,-5.43748 0,-3.05138 2.3862,-5.44291 5.4375,-5.44291 z m -35.9447,53.5832 c 3.0512,0 5.4372,2.38604 5.4372,5.43745 0,3.05144 -2.386,5.43745 -5.4372,5.43745 -3.0516,0 -5.4415,-2.38601 -5.4415,-5.43745 0,-3.05141 2.3899,-5.43745 5.4415,-5.43745 z m 5.1453,48.33364 0.2123,0.84612 v 0.005 z" />
        <path
           id="path185"
           style="font-variation-settings:'wght' 460;fill:url(#linearGradient3);stroke:url(#linearGradient4);stroke-width:1;stroke-dasharray:none"
           d="m -1442.3269,103.30111 c -0.9546,0.0281 -2.0169,0.10482 -3.1529,0.25767 h -0.027 c -3.8055,0.51284 -8.3529,2.32673 -12.5275,5.64864 -5.8497,-2.86048 -13.4033,-3.33903 -20.5814,-0.58558 -7.5245,2.88635 -14.1225,9.86692 -16.4878,20.65546 -2.3411,0.50191 -5.7297,1.46968 -9.7915,4.19226 -5.7658,3.86468 -11.2967,11.41037 -11.7964,23.13759 -0.1247,0.0709 -0.2898,0.18231 -0.4225,0.2606 h -0.3251 v 0.20009 c -1.9582,1.18893 -4.7029,3.16075 -7.6069,6.90481 -4.3134,5.56162 -7.3637,14.55421 -4.3952,26.05998 -1.4784,1.70729 -4.1035,5.03782 -5.9558,10.69388 -2.3111,7.05841 -1.9834,16.97862 5.5609,26.58932 -0.7491,2.19903 -1.9369,6.34349 -1.3783,12.39162 0.6939,7.5131 5.1488,16.59274 16.3577,22.77968 -0.2123,2.46427 -0.3224,6.31228 1.1822,11.40288 2.0386,6.89677 7.8495,14.51518 19.0948,17.53012 0.6695,2.3099 2.128,6.57095 6.1835,11.26709 5.0596,5.859 14.344,10.45463 27.2887,7.6865 3.3798,3.4421 12.6098,11.10105 26.0038,7.74409 17.0949,-4.28456 20.4936,-22.46291 20.4936,-22.46291 l 0.066,-0.35244 -0.032,-166.72466 -0.026,-0.21256 c 0,0 -0.578,-5.28942 -3.6959,-10.94209 -3.1182,-5.65267 -9.1531,-12.02251 -19.2856,-13.85487 v -0.005 c 0,0 -1.8934,-0.34656 -4.7571,-0.26193 z m 0.026,7.67824 c 2.0259,-0.0759 3.3772,0.14622 3.3803,0.14675 v 0 c 7.6755,1.39534 11.5635,5.7439 13.9126,10.00269 2.3337,4.23042 2.7607,7.96591 2.7673,8.02384 l 0.026,165.24771 c -0.056,0.28847 -2.559,13.21434 -14.7503,16.26983 -12.4896,3.13028 -19.6393,-6.6703 -19.6393,-6.6703 l -1.1507,-1.51948 h -1.9075 -0.5389 l -0.5183,0.14543 c -12.0202,3.41078 -17.9194,-0.38907 -21.8624,-4.95473 -3.9427,-4.56564 -5.1987,-10.05484 -5.1987,-10.05484 l -0.5389,-2.48353 -2.5028,-0.47173 c -10.4645,-1.97174 -13.8733,-7.4842 -15.4881,-12.94705 -0.5968,-2.01831 -0.7993,-3.88731 -0.8914,-5.56772 h 28.8781 c 1.6278,5.63661 6.8586,9.80798 12.9909,9.80798 7.4156,0 13.5121,-6.09772 13.5121,-13.5134 0,-7.41561 -6.0965,-13.51201 -13.5121,-13.51201 -5.9481,0 -11.0478,3.92402 -12.8346,9.3033 h -28.4296 l -2.6524,-1.22736 c -11.1271,-5.15512 -13.7674,-12.00937 -14.3209,-18.00188 -0.5533,-5.99248 1.4577,-10.81179 1.4577,-10.81179 l 0.9585,-2.24905 -1.6334,-1.81978 c -2.4021,-2.67603 -3.9323,-5.1967 -4.9341,-7.59462 h 68.9122 c 1.7093,5.50971 6.8775,9.55978 12.9185,9.55978 7.4156,0 13.5118,-6.10184 13.5118,-13.51753 0,-7.4156 -6.0962,-13.51202 -13.5118,-13.51202 -6.0423,0 -11.2118,4.04656 -12.9198,9.55701 h -70.337 c 0.1088,-1.95273 0.4899,-3.7961 1.0477,-5.49914 1.8459,-5.63707 5.4731,-9.34034 5.4731,-9.34034 l 1.6485,-1.65798 -0.72,-2.22435 c -3.3758,-10.47272 -0.6735,-16.84288 2.7206,-21.21909 1.3107,-1.6898 2.675,-2.9063 3.9194,-3.8919 h 21.6675 c 1.7072,5.50965 6.8711,9.55701 12.9129,9.55701 7.4156,0 13.5118,-6.09637 13.5118,-13.51203 0,-7.41568 -6.0962,-13.51752 -13.5118,-13.51752 -6.041,0 -11.2049,4.04872 -12.9129,9.5584 h -15.7966 c 0.3102,-9.54967 4.3664,-14.20543 8.5697,-17.02272 4.4888,-3.00898 8.9877,-3.49833 8.9877,-3.49833 l 3.0062,-0.31131 0.4044,-2.98955 c 1.3728,-10.13395 6.5019,-15.00814 12.3614,-17.25586 5.8598,-2.2477 12.6658,-1.25965 16.0053,0.986 l 2.6742,1.79786 2.2339,-2.3272 c 4.0138,-4.18695 9.265,-5.14089 12.6411,-5.2674 z m -38.1744,44.40469 c 3.0513,0 5.4373,2.3915 5.4373,5.44294 0,3.05141 -2.386,5.43607 -5.4373,5.43607 -3.0515,0 -5.4375,-2.38466 -5.4375,-5.43607 0,-3.05144 2.386,-5.44294 5.4375,-5.44294 z m 34.5871,51.74832 c 3.0512,0 5.4372,2.38604 5.4372,5.43745 0,3.05144 -2.386,5.44156 -5.4372,5.44156 -3.0516,0 -5.4418,-2.39012 -5.4418,-5.44156 0,-3.05141 2.3902,-5.43745 5.4418,-5.43745 z m -19.4419,49.87232 c 3.0513,0 5.4375,2.38471 5.4375,5.43606 0,3.05144 -2.3862,5.43745 -5.4375,5.43745 -3.0515,0 -5.4428,-2.38601 -5.4428,-5.43745 0,-3.05135 2.3913,-5.43606 5.4428,-5.43606 z" />
      </g>
      <g
         id="g192"
         transform="translate(-15.150073,-66.028004)">
        <g
           id="g190"
           transform="matrix(1.1615959,0,0,1.1277685,163.14347,-36.65727)">
          <g
             id="g189"
             transform="translate(16.562135,-14.401921)">
            <g
               id="g188">
              <rect
                 style="opacity:0.764702;mix-blend-mode:normal;fill:url(#linearGradient210);fill-opacity:1;stroke-width:0.493473;filter:url(#filter104)"
                 id="rect185"
                 width="19.033314"
                 height="17.724277"
                 x="281.62335"
                 y="303.4726"
                 transform="matrix(-2.7181196,0,0,8.6702439,-612.06254,-2008.1671)" />
              <rect
                 style="mix-blend-mode:normal;fill:#f2f2f2;fill-opacity:1;stroke-width:0.493473;filter:url(#filter2)"
                 id="rect186"
                 width="19.033314"
                 height="17.724277"
                 x="281.62335"
                 y="303.4726"
                 transform="matrix(1.4346355,0,0,9.5248164,-1823.3154,-2267.2322)" />
              <path
                 id="path186"
                 style="fill:#ffffff;stroke-width:0.493473;filter:url(#filter94)"
                 transform="matrix(0.53019923,0,0,2.6141187,-1558.9523,-105.33615)"
                 d="m 281.62335,303.4726 h 19.03332 l -4.56243,9.04929 4.56243,8.67498 h -19.03332 l 3.99912,-8.80844 z" />
              <g
                 id="g187"
                 transform="translate(-0.42866569,-3.7877707)">
                <rect
                   style="mix-blend-mode:normal;fill:#ffffff;fill-opacity:1;stroke-width:0.493473;filter:url(#filter94)"
                   id="rect187"
                   width="19.033314"
                   height="17.724277"
                   x="281.62335"
                   y="303.4726"
                   transform="matrix(0.23662175,0,0,6.6263373,-1473.3084,-1347.6459)" />
                <circle
                   style="opacity:0.0376622;fill:#ffffff;fill-opacity:0.995967;stroke:#ffffff;stroke-width:0.376826;stroke-dasharray:none;stroke-opacity:1;filter:url(#filter148)"
                   id="circle187"
                   cx="-1245.6349"
                   cy="200.51714"
                   r="4.611968"
                   transform="matrix(4.4437092,0,0,1.3913772,4127.8194,440.50789)" />
              </g>
            </g>
          </g>
        </g>
        <g
           id="g191"
           transform="matrix(1.079404,0,0,1.079404,74.391881,516.92898)">
          <path
             id="path190"
             style="font-variation-settings:'wght' 460;fill:url(#linearGradient206);fill-opacity:1;stroke:url(#linearGradient207);stroke-width:1;stroke-dasharray:none;stroke-opacity:1"
             d="m -1382.1421,103.30068 c -2.8634,-0.0846 -4.7558,0.26325 -4.7558,0.26325 v 0.005 c -10.1325,1.83236 -16.1687,8.20085 -19.2869,13.85351 -3.1178,5.65267 -3.6945,10.94209 -3.6945,10.94209 l -0.026,0.21257 -0.027,166.72465 0.066,0.35244 c 0,0 3.3997,18.17835 20.4948,22.46291 13.3993,3.35829 22.6262,-4.30276 26.0025,-7.74273 12.9447,2.76812 22.2305,-1.82748 27.2901,-7.68647 4.0554,-4.69618 5.5139,-8.95857 6.1835,-11.26847 11.2418,-3.01593 17.0498,-10.63301 19.0881,-17.52874 1.5036,-5.08625 1.3938,-8.93273 1.182,-11.39877 11.2137,-6.18698 15.6688,-15.26924 16.363,-22.7838 0.5586,-6.04953 -0.6345,-10.19479 -1.3837,-12.393 7.546,-9.61128 7.8737,-19.53046 5.5623,-26.58932 -1.8515,-5.65399 -4.4766,-8.97996 -5.9558,-10.68841 2.9714,-11.50874 -0.077,-20.50285 -4.3898,-26.06545 -3.2671,-4.21231 -6.3993,-6.24556 -8.3556,-7.3656 -0.4995,-11.72744 -6.0307,-19.27151 -11.7965,-23.13624 -4.0618,-2.72259 -7.4501,-3.69171 -9.7915,-4.19361 -2.365,-10.78881 -8.9675,-17.76771 -16.492,-20.65408 -7.1805,-2.75443 -14.7322,-2.2736 -20.5827,0.58969 -4.1751,-3.32329 -8.7213,-5.14119 -12.5275,-5.65413 h -0.027 c -1.136,-0.15312 -2.1983,-0.22955 -3.1529,-0.25768 z m -0.053,7.67825 c 3.3767,0.12658 8.6316,1.08044 12.6454,5.26739 l 2.2339,2.3272 2.6795,-1.79786 c 3.3395,-2.24565 10.1458,-3.23369 16.0053,-0.986 5.8597,2.24773 10.9886,7.12192 12.3614,17.25586 l 0.4044,2.98955 3.0062,0.31131 c 0,0 4.4933,0.48935 8.9824,3.49833 4.4891,3.00898 8.8747,8.03931 8.6356,18.97553 l -0.056,2.51921 2.2916,1.05183 c 0,0 4.1003,1.90598 7.4944,6.28219 3.3941,4.37622 6.0911,10.74638 2.7153,21.2191 l -0.7144,2.22434 1.6483,1.65798 c 0,0 3.6218,3.70328 5.4675,9.34034 1.8459,5.63709 2.2005,12.6437 -5.307,21.00653 l -1.6334,1.81978 0.9599,2.24905 c 0,0 2.0097,4.81931 1.4564,10.81179 -0.5536,5.9925 -3.1991,12.84676 -14.3265,18.00187 l -2.6742,1.23835 0.5074,2.90728 c 0,0 0.8428,5.10077 -0.772,10.56358 -1.6148,5.46285 -5.0225,10.97532 -15.4867,12.94705 l -2.4988,0.47173 -0.539,2.48354 c 0,0 -1.2557,5.48919 -5.1987,10.05483 -3.9426,4.56566 -9.8475,8.36551 -21.8679,4.95473 l -0.5127,-0.14543 h -2.4465 v 0.0106 l -1.1425,1.50849 c 0,0 -7.1494,9.80058 -19.639,6.6703 -12.1781,-3.05218 -14.6898,-15.93874 -14.7506,-16.25475 v -23.8082 h 19.2428 c 1.7836,5.38501 6.8868,9.31428 12.8389,9.31428 7.4156,0 13.512,-6.09637 13.512,-13.51203 0,-7.41565 -6.0964,-13.51202 -13.512,-13.51202 -6.1283,0 -11.3565,4.16487 -12.9883,9.79564 h -19.0921 v -45.91457 h 55.1027 c 1.7045,5.51393 6.871,9.56525 12.9155,9.56525 7.4156,0 13.5121,-6.0964 13.5121,-13.51203 0,-7.41563 -6.0965,-13.5175 -13.5121,-13.5175 -6.0376,0 -11.1996,4.04474 -12.91,9.55017 h -55.1069 V 165.0458 h 34.055 c 1.7831,5.38565 6.8862,9.31566 12.8386,9.31566 7.4156,0 13.5121,-6.09775 13.5121,-13.51338 0,-7.41566 -6.0965,-13.51752 -13.5121,-13.51752 -6.128,0 -11.3549,4.16924 -12.9866,9.80111 h -33.9056 V 129.1422 c 0,-0.0679 0.4312,-3.78957 2.7617,-8.01426 2.3491,-4.25879 6.2369,-8.60735 13.9125,-10.00269 0,-0.002 1.3489,-0.22238 3.3682,-0.14675 z m 26.8456,44.42801 c 3.0513,0 5.4375,2.39015 5.4375,5.44156 0,3.05141 -2.3862,5.43745 -5.4375,5.43745 -3.0513,0 -5.4415,-2.38604 -5.4415,-5.43745 0,-3.05141 2.3902,-5.44156 5.4415,-5.44156 z m 21.1164,51.98146 c 3.0515,0 5.4375,2.39153 5.4375,5.44291 0,3.05144 -2.386,5.43748 -5.4375,5.43748 -3.0513,0 -5.4375,-2.38604 -5.4375,-5.43748 0,-3.05138 2.3862,-5.44291 5.4375,-5.44291 z m -35.9447,53.5832 c 3.0512,0 5.4372,2.38604 5.4372,5.43745 0,3.05144 -2.386,5.43745 -5.4372,5.43745 -3.0516,0 -5.4415,-2.38601 -5.4415,-5.43745 0,-3.05141 2.3899,-5.43745 5.4415,-5.43745 z m 5.1453,48.33364 0.2123,0.84612 v 0.005 z" />
          <path
             id="path191"
             style="font-variation-settings:'wght' 460;fill:url(#linearGradient208);stroke:url(#linearGradient209);stroke-width:1;stroke-dasharray:none"
             d="m -1442.3269,103.30111 c -0.9546,0.0281 -2.0169,0.10482 -3.1529,0.25767 h -0.027 c -3.8055,0.51284 -8.3529,2.32673 -12.5275,5.64864 -5.8497,-2.86048 -13.4033,-3.33903 -20.5814,-0.58558 -7.5245,2.88635 -14.1225,9.86692 -16.4878,20.65546 -2.3411,0.50191 -5.7297,1.46968 -9.7915,4.19226 -5.7658,3.86468 -11.2967,11.41037 -11.7964,23.13759 -0.1247,0.0709 -0.2898,0.18231 -0.4225,0.2606 h -0.3251 v 0.20009 c -1.9582,1.18893 -4.7029,3.16075 -7.6069,6.90481 -4.3134,5.56162 -7.3637,14.55421 -4.3952,26.05998 -1.4784,1.70729 -4.1035,5.03782 -5.9558,10.69388 -2.3111,7.05841 -1.9834,16.97862 5.5609,26.58932 -0.7491,2.19903 -1.9369,6.34349 -1.3783,12.39162 0.6939,7.5131 5.1488,16.59274 16.3577,22.77968 -0.2123,2.46427 -0.3224,6.31228 1.1822,11.40288 2.0386,6.89677 7.8495,14.51518 19.0948,17.53012 0.6695,2.3099 2.128,6.57095 6.1835,11.26709 5.0596,5.859 14.344,10.45463 27.2887,7.6865 3.3798,3.4421 12.6098,11.10105 26.0038,7.74409 17.0949,-4.28456 20.4936,-22.46291 20.4936,-22.46291 l 0.066,-0.35244 -0.032,-166.72466 -0.026,-0.21256 c 0,0 -0.578,-5.28942 -3.6959,-10.94209 -3.1182,-5.65267 -9.1531,-12.02251 -19.2856,-13.85487 v -0.005 c 0,0 -1.8934,-0.34656 -4.7571,-0.26193 z m 0.026,7.67824 c 2.0259,-0.0759 3.3772,0.14622 3.3803,0.14675 v 0 c 7.6755,1.39534 11.5635,5.7439 13.9126,10.00269 2.3337,4.23042 2.7607,7.96591 2.7673,8.02384 l 0.026,165.24771 c -0.056,0.28847 -2.559,13.21434 -14.7503,16.26983 -12.4896,3.13028 -19.6393,-6.6703 -19.6393,-6.6703 l -1.1507,-1.51948 h -1.9075 -0.5389 l -0.5183,0.14543 c -12.0202,3.41078 -17.9194,-0.38907 -21.8624,-4.95473 -3.9427,-4.56564 -5.1987,-10.05484 -5.1987,-10.05484 l -0.5389,-2.48353 -2.5028,-0.47173 c -10.4645,-1.97174 -13.8733,-7.4842 -15.4881,-12.94705 -0.5968,-2.01831 -0.7993,-3.88731 -0.8914,-5.56772 h 28.8781 c 1.6278,5.63661 6.8586,9.80798 12.9909,9.80798 7.4156,0 13.5121,-6.09772 13.5121,-13.5134 0,-7.41561 -6.0965,-13.51201 -13.5121,-13.51201 -5.9481,0 -11.0478,3.92402 -12.8346,9.3033 h -28.4296 l -2.6524,-1.22736 c -11.1271,-5.15512 -13.7674,-12.00937 -14.3209,-18.00188 -0.5533,-5.99248 1.4577,-10.81179 1.4577,-10.81179 l 0.9585,-2.24905 -1.6334,-1.81978 c -2.4021,-2.67603 -3.9323,-5.1967 -4.9341,-7.59462 h 68.9122 c 1.7093,5.50971 6.8775,9.55978 12.9185,9.55978 7.4156,0 13.5118,-6.10184 13.5118,-13.51753 0,-7.4156 -6.0962,-13.51202 -13.5118,-13.51202 -6.0423,0 -11.2118,4.04656 -12.9198,9.55701 h -70.337 c 0.1088,-1.95273 0.4899,-3.7961 1.0477,-5.49914 1.8459,-5.63707 5.4731,-9.34034 5.4731,-9.34034 l 1.6485,-1.65798 -0.72,-2.22435 c -3.3758,-10.47272 -0.6735,-16.84288 2.7206,-21.21909 1.3107,-1.6898 2.675,-2.9063 3.9194,-3.8919 h 21.6675 c 1.7072,5.50965 6.8711,9.55701 12.9129,9.55701 7.4156,0 13.5118,-6.09637 13.5118,-13.51203 0,-7.41568 -6.0962,-13.51752 -13.5118,-13.51752 -6.041,0 -11.2049,4.04872 -12.9129,9.5584 h -15.7966 c 0.3102,-9.54967 4.3664,-14.20543 8.5697,-17.02272 4.4888,-3.00898 8.9877,-3.49833 8.9877,-3.49833 l 3.0062,-0.31131 0.4044,-2.98955 c 1.3728,-10.13395 6.5019,-15.00814 12.3614,-17.25586 5.8598,-2.2477 12.6658,-1.25965 16.0053,0.986 l 2.6742,1.79786 2.2339,-2.3272 c 4.0138,-4.18695 9.265,-5.14089 12.6411,-5.2674 z m -38.1744,44.40469 c 3.0513,0 5.4373,2.3915 5.4373,5.44294 0,3.05141 -2.386,5.43607 -5.4373,5.43607 -3.0515,0 -5.4375,-2.38466 -5.4375,-5.43607 0,-3.05144 2.386,-5.44294 5.4375,-5.44294 z m 34.5871,51.74832 c 3.0512,0 5.4372,2.38604 5.4372,5.43745 0,3.05144 -2.386,5.44156 -5.4372,5.44156 -3.0516,0 -5.4418,-2.39012 -5.4418,-5.44156 0,-3.05141 2.3902,-5.43745 5.4418,-5.43745 z m -19.4419,49.87232 c 3.0513,0 5.4375,2.38471 5.4375,5.43606 0,3.05144 -2.3862,5.43745 -5.4375,5.43745 -3.0515,0 -5.4428,-2.38601 -5.4428,-5.43745 0,-3.05135 2.3913,-5.43606 5.4428,-5.43606 z" />
        </g>
      </g>
    </g>
  </g>
</svg>
