
<svg width="477.36581mm" height="410.27829mm" viewBox="0 0 477.36581 410.27829" xml:space="preserve" xmlns:xlink="http://www.w3.org/1999/xlink" xmlns="http://www.w3.org/2000/svg"><defs><radialGradient xlink:href="#a" id="b" cx="-271.47214" cy="241.68164" fx="-271.47214" fy="241.68164" r="227.19894" gradientTransform="matrix(1 0 0 .85226 62.120629 7.33884)" gradientUnits="userSpaceOnUse"/><linearGradient id="a"><stop style="stop-color:#152df8;stop-opacity:.79997164" offset=".007776"/><stop style="stop-color:#005382;stop-opacity:.18841079" offset=".827275"/></linearGradient></defs><path d="M-214.61953 21.35762c-1.44639.176389-4.58611.776111-6.91444 1.27l-4.30389.9525-3.98639-.599722c-5.25639-.740834-18.02695-.776111-23.24806-.03528-6.73805.9525-12.77055 2.398889-17.39194 4.092222l-2.89278 1.058333-6.70278-.388055c-9.27805-.564445-17.07444.03528-25.89389 1.975555-12.84111 2.8575-26.52888 9.630834-35.98333 17.78l-2.75166 2.398889-3.66889-.03528c-5.29167-.07055-9.06639 1.023058-14.95778 4.268614-6.91445 3.81-12.73528 8.74889-23.8125 20.178891-9.94834 10.26583-15.66334 15.62805-19.61445 18.415-3.56305 2.46944-8.29028 7.443613-11.07722 11.641673-2.57528 3.84527-6.06778 10.93611-7.9375 16.15722-.74083 2.01083-1.94028 4.65666-2.68111 5.89138-2.89278 4.69195-4.86833 9.45445-5.82083 13.97-.98778 4.69195-.42334 8.74889 1.69333 12.62945l1.12889 2.04611-1.48167 3.10443c-.81139 1.76389-1.62278 4.16278-1.86972 5.53861-.56445 3.28084-.21167 9.24278.70555 12.45306 2.08139 7.19667 7.16139 16.01611 12.80584 22.15444 1.83444 2.01084 1.97555 2.29306 2.82222 5.85611 1.94028 7.97278 5.04472 13.68778 10.68917 19.64973 7.37305 7.72583 15.94555 13.08805 28.29278 17.56833 4.83305 1.72861 12.91166 3.88056 18.55611 4.93889l3.4925.635 1.19944 2.54c.81139 1.72861 2.08139 3.45722 4.02167 5.57389 2.50472 2.68111 2.82222 3.175 2.82222 4.37444 0 .74084.24695 2.18722.56445 3.24556.3175 1.09361.59972 3.52778.635 5.64444.0706 3.38667.14111 3.88056 1.19944 5.89139 2.39889 4.69195 6.24417 8.29028 13.68778 12.91167 2.36361 1.44639 5.92666 3.88055 7.9375 5.43278 11.67694 8.96055 23.31861 14.53444 36.195 17.35666 6.06777 1.30528 7.05555 1.41111 19.79083 1.76389 14.11111.42333 20.35528-.10583 35.31306-2.99861 3.56305-.67028 6.52638-1.19944 6.56166-1.12889.0706.0706.91722 1.72861 1.905 3.70417 4.58611 9.17222 10.26584 16.36889 17.25084 21.80166 2.71638 2.11667 3.4925 2.96334 5.25638 5.82084 2.8575 4.55083 12.24139 20.84916 14.64028 25.4 5.82084 11.1125 9.525 18.48555 10.51278 20.99028 3.56306 9.06638 8.5725 15.20472 15.06361 18.415 3.88056 1.94027 6.38528 2.25777 11.04195 1.37583 3.10444-.59972 4.19805-1.16417 5.43277-2.82222.635-.81139.74084-1.44639.70556-4.19806-.0706-3.81-.81139-6.49111-4.79778-17.53305-2.57528-7.12612-4.05694-11.85334-3.77472-12.13556.0706-.10583 3.24555.52917 7.02028 1.34056 6.59694 1.44638 7.23194 1.51694 14.81666 1.76388 4.37445.10584 10.23056.49389 13.05278.81139 6.49111.74084 11.39472.35278 21.09611-1.65805 17.35667-3.56306 27.02278-7.26722 35.70111-13.75834 2.64584-1.97555 7.44361-6.70277 9.41917-9.31333 2.11667-2.78694 4.23333-7.26722 4.72722-9.91305.3175-1.69334.67028-2.39889 1.97556-3.88056 1.97555-2.15194 3.06916-4.445 3.77472-8.00806.70556-3.38666.70556-4.55083.0353-7.58472-.3175-1.30528-.59972-2.71639-.70556-3.13972-.17639-.74083-.0353-.74083 6.27944-.9525 14.88722-.49389 25.18833-4.65667 34.29-13.79361 11.99444-12.10028 18.415-30.97389 19.12055-56.12695.21167-8.07861-.56444-25.61166-1.51694-34.18416-1.79917-16.29834-6.10306-29.80972-11.71222-36.72417-1.44639-1.76389-1.97556-2.82222-3.10445-6.35-3.63361-11.28888-11.04194-22.3661-17.32139-25.92916l-2.18722-1.23472-.21167-2.29305c-.49389-5.04473-.9525-7.86695-1.72861-10.4775-2.57528-8.53722-6.6675-15.13417-13.75833-22.15444-4.19805-4.16278-7.51416-6.808613-12.59416-10.018893-3.10444-1.94028-3.21028-2.04611-3.91583-4.09222-.9878-2.96334-4.02169-7.44362-7.47891-11.04195-1.62278-1.69333-3.95111-4.51555-5.18583-6.24417-11.25361-15.945553-31.57361-27.904719-58.7375-34.572219-3.70417-.917222-7.9375-2.2225-10.12473-3.175-5.36222-2.2225-10.795-3.880556-16.79222-5.115278-6.56166-1.305278-11.07722-1.763889-18.02694-1.763889h-5.53861l-3.31611-1.552222c-4.30389-2.046111-9.87778-3.915833-15.06362-5.009444-3.56305-.776112-5.22111-.917223-12.065-1.023056-4.37444-.07056-9.13694 0-10.58333.176389z" style="opacity:.844695;fill:url(#b);stroke:none;stroke-width:.335;stroke-dasharray:none;filter:url(#filter2)" transform="translate(448.02329 -8.190871)"/></svg>